<?xml version="1.0" encoding="UTF-8"?>
<svg width="16px" height="13px" viewBox="0 0 16 13" version="1.1" xmlns="http://www.w3.org/2000/svg" xmlns:xlink="http://www.w3.org/1999/xlink">
    <!-- Generator: Sketch 49.2 (51160) - http://www.bohemiancoding.com/sketch -->
    <title>同步</title>
    <desc>Created with Sketch.</desc>
    <defs></defs>
    <g id="业务运作管理" stroke="none" stroke-width="1" fill="none" fill-rule="evenodd">
        <g id="业务运作-新建订单-选择路线" transform="translate(-855.000000, -1211.000000)" fill="#18B583" fill-rule="nonzero">
            <g id="Group-6" transform="translate(290.000000, 118.000000)">
                <g id="Group" transform="translate(89.000000, 1074.000000)">
                    <g id="同步" transform="translate(476.000000, 19.000000)">
                        <path d="M2.26015432,6.28943545 L4.7067928,4.90284764 C4.98169642,4.74704503 5.07691715,4.40023174 4.91946113,4.12819631 C4.7620238,3.85619785 4.41153009,3.76197701 4.13658911,3.91776114 L2.8306008,4.65790671 C3.61009209,2.54605127 5.64233922,1.13521518 7.92416253,1.13521518 C10.2433793,1.13521518 12.305474,2.59321713 13.0554539,4.76327217 C13.1579778,5.05990703 13.4841527,5.21803836 13.7838421,5.1166835 C14.0836249,5.01523622 14.243509,4.69256032 14.1410039,4.39594394 C13.2322978,1.76659463 10.7339398,0 7.92414388,0 C5.15900721,0 2.69632428,1.71024324 1.75233537,4.27006355 L1.07150157,3.09383699 C0.914045571,2.82182004 0.563551858,2.72758071 0.28862956,2.88340182 C0.0137259338,3.03920443 -0.0814947926,3.38601772 0.075961228,3.65805315 L1.47726365,6.0789818 C1.58322426,6.26206373 1.77659816,6.36460144 1.97557549,6.36460144 C2.07227176,6.36460142 2.17025683,6.34039011 2.26015432,6.28943545 Z M15.9240484,9.26260396 L14.5227646,6.84171228 C14.3653273,6.56969533 14.0148336,6.47545601 13.7398926,6.63127711 L11.2932355,8.01780947 C11.0183132,8.17363057 10.9231111,8.52044385 11.0805298,8.7924608 C11.1865091,8.97556122 11.3798643,9.07808044 11.5788603,9.07808044 C11.6755192,9.07808044 11.773523,9.05385065 11.8634018,9.00293294 L13.0145117,8.35055802 C12.2327043,10.4575897 10.2025304,11.8647848 7.92414388,11.8647848 C5.60358228,11.8647848 3.54109537,10.4056925 2.79193724,8.23399253 C2.68960017,7.9373207 2.36353736,7.77893062 2.06375458,7.88017459 C1.76393444,7.98143706 1.60384481,8.30405751 1.70618188,8.60072934 C2.61391668,11.2320562 5.11272298,13 7.92414388,13 C10.7339398,13 13.2322791,11.2333869 14.1409852,8.60400062 C14.1520239,8.57208233 14.1598314,8.53986833 14.1649305,8.50765436 L14.9284894,9.82678315 C15.0344686,10.0098836 15.2278239,10.1124028 15.4268012,10.1124028 C15.5234602,10.1124028 15.6214639,10.0881545 15.7113427,10.0372553 C15.9862837,9.88145269 16.0814857,9.53462092 15.9240484,9.26260396 Z" id="Shape"></path>
                    </g>
                </g>
            </g>
        </g>
    </g>
</svg>