<?xml version="1.0" standalone="no"?><!DOCTYPE svg PUBLIC "-//W3C//DTD SVG 1.1//EN" "http://www.w3.org/Graphics/SVG/1.1/DTD/svg11.dtd"><svg t="1540349702463" class="icon" style="" viewBox="0 0 1024 1024" version="1.1" xmlns="http://www.w3.org/2000/svg" p-id="2033" xmlns:xlink="http://www.w3.org/1999/xlink" width="200" height="200"><defs><style type="text/css"></style></defs><path d="M480 64C215.04 64 0 279.04 0 544 0 808.96 215.04 1024 480 1024c264.96 0 480-215.04 480-480C960 279.04 744.96 64 480 64zM672 512C689.92 512 704 526.08 704 544 704 561.92 689.92 576 672 576L512 576l0 128 160 0c17.92 0 32 14.08 32 32 0 17.92-14.08 32-32 32L512 768l0 96C512 881.92 497.92 896 480 896 462.08 896 448 881.92 448 864L448 768 288 768C270.08 768 256 753.92 256 736 256 718.08 270.08 704 288 704L448 704 448 576 288 576C270.08 576 256 561.92 256 544 256 526.08 270.08 512 288 512L448 512 448 490.88 264.96 307.84c-12.16-12.16-12.16-31.36 0-42.88 12.16-12.16 31.36-12.16 42.88 0l171.52 171.52 173.44-173.44c12.16-12.16 32-12.16 44.16 0 12.16 12.16 12.16 32 0 44.16L512 492.16 512 512 672 512z" p-id="2034"></path></svg>