<?xml version="1.0" encoding="UTF-8"?>
<svg width="16px" height="16px" viewBox="0 0 16 16" version="1.1" xmlns="http://www.w3.org/2000/svg" xmlns:xlink="http://www.w3.org/1999/xlink">
    <!-- Generator: Sketch 49.2 (51160) - http://www.bohemiancoding.com/sketch -->
    <title>location</title>
    <desc>Created with Sketch.</desc>
    <defs></defs>
    <g id="项目管理" stroke="none" stroke-width="1" fill="none" fill-rule="evenodd">
        <g id="收发货方管理-定位" transform="translate(-892.000000, -353.000000)" fill="#18B583" fill-rule="nonzero">
            <g id="Group" transform="translate(470.000000, 146.000000)">
                <g id="location" transform="translate(422.000000, 207.000000)">
                    <path d="M7.98861028,11.6289375 L7.97083273,11.6289375 C7.36639598,11.6289375 4.72447408,8.5539494 4.04794937,7.43093966 C2.9884962,5.67291475 2.76449905,3.05196609 4.38083401,1.44096177 C5.78828275,0.0390217886 7.8781228,0 7.96656611,0 L7.96763277,0 C8.25065138,0 10.3717799,0.0430217442 11.5994087,1.46398373 C12.9545915,3.03294408 13.0838343,5.4858946 11.9136269,7.43093966 C11.2350578,8.5539494 8.59189148,11.6289375 7.98861028,11.6289375 M8.0022101,0.887990133 C7.95483293,0.887990133 6.1509448,0.927456362 5.00082612,2.07206587 C3.71195365,3.35471828 3.93275083,5.56251597 4.79220655,6.989789 C5.57441881,8.28621904 7.40390661,10.1938423 7.97652154,10.6673481 C8.54993646,10.1947312 10.3794243,8.28613015 11.1617254,6.989789 C12.1217132,5.39425117 12.0250922,3.31729647 10.9323061,2.05046611 C9.93942987,0.901856646 8.08132021,0.887990133 8.0022101,0.887990133 M7.95047743,6.7465917 C6.70852682,6.74212789 5.70495274,5.73244482 5.70802405,4.49048796 C5.71109535,3.2485311 6.71965092,2.24382395 7.96160842,2.24550275 C9.20356592,2.24718156 10.2094016,3.25461164 10.2091153,4.49657226 C10.2048536,5.74082052 9.19473086,6.74708887 7.95047743,6.7465917 M7.95598847,3.11107654 C7.19580933,3.11137121 6.57972321,3.72771053 6.57973968,4.48789097 C6.57975615,5.24807141 7.19586897,5.86438404 7.95604812,5.86464576 C8.71622728,5.86490749 9.33276434,5.24901926 9.33330426,4.48883901 C9.33203095,3.72856504 8.71581733,3.11266846 7.95554403,3.11178765 M15.1998962,9.15545383 C15.1788298,9.12149865 15.1238972,9.15616493 13.1554778,6.9332563 L12.5332635,7.55547161 C13.2158326,8.32541861 14.1900424,9.44976167 14.3999064,9.68878124 C14.4942163,10.252775 14.9421217,13.0427884 15.1110084,14.4887279 C14.9836323,14.4009067 14.7980346,14.3068633 14.6665697,14.2220642 C13.2744096,13.322252 12.8565483,12.9865224 12.5332635,12.7998578 L12.5332635,8.88879012 L11.6443859,8.88879012 L11.6443859,12.7998578 C11.2088359,13.0267886 10.3084918,13.6176265 8.35296119,14.8908568 L8.35553894,12.4443062 L7.46666137,12.4443062 L7.46666137,14.7553916 C5.42588737,13.429273 4.66323042,12.9593227 4.26670213,12.7109699 L4.26670213,8.88879012 L3.37782457,8.88879012 L3.37782457,12.7998578 C3.06929517,13.0384329 2.45108082,13.4711392 1.24451841,14.3109521 C1.11420896,14.4044622 1.10629795,14.4009067 0.977855142,14.4887279 C1.14754187,13.0498994 1.503804,10.1776647 1.60006944,9.59989333 C1.85606618,9.30594105 2.80005415,8.30746325 3.46671233,7.55547161 L2.83303151,6.91690092 C0.860523303,9.14292063 0.842390201,9.17189809 0.820346037,9.2048755 C0.644614943,9.47793913 -0.00879895585,15.4257842 8.98198094e-05,15.4608949 L0.0402670858,15.6328041 L0.186842996,15.7228475 C0.427728817,15.8679126 0.426839939,15.8688903 1.73784546,14.9787669 C2.38423723,14.5398384 3.53168928,13.7558472 3.92217319,13.537894 C4.41905575,13.7898023 6.1777889,14.8987678 7.7466578,15.9289786 L7.84203437,15.9900446 L8.14514162,16 L8.25358468,15.9299563 C9.82254247,14.8988567 11.5813645,13.7910468 12.0771804,13.537094 C12.4676643,13.7580694 13.6160053,14.5390385 14.2638192,14.9801002 C15.5739359,15.8689792 15.5739359,15.8689792 15.8147328,15.724092 L15.9613087,15.632093 L15.999886,15.4658726 C16.0097525,15.4297841 15.3763384,9.42851746 15.1998962,9.15545383" id="Shape"></path>
                </g>
            </g>
        </g>
    </g>
</svg>