<?xml version="1.0" encoding="UTF-8"?>
<svg width="14px" height="14px" viewBox="0 0 14 14" version="1.1" xmlns="http://www.w3.org/2000/svg" xmlns:xlink="http://www.w3.org/1999/xlink">
    <!-- Generator: Sketch 49.2 (51160) - http://www.bohemiancoding.com/sketch -->
    <title>通知</title>
    <desc>Created with Sketch.</desc>
    <defs></defs>
    <g id="通知" stroke="none" stroke-width="1" fill="none" fill-rule="evenodd" opacity="0.5">
        <g id="通知-(1)" transform="translate(1.000000, 0.000000)" fill="#FFFFFF" fill-rule="nonzero">
            <path d="M1.38461538,8.51851852 L1.38461538,4.81481481 C1.38461538,3.02296296 2.97046154,1.52851852 5.07692308,1.18518519 L5.07692308,0.740740741 C5.07692308,0.331481481 5.49,0 6,0 C6.51,0 6.92307692,0.331481481 6.92307692,0.740740741 L6.92307692,1.18518519 C9.02953846,1.52851852 10.6153846,3.02296296 10.6153846,4.81481481 L10.6153846,8.51851852 L11.0783077,8.51851852 C11.5873846,8.51851852 12,8.84740741 12,9.25925926 C12,9.66851852 11.5869231,10 11.0783077,10 L0.921692308,10 C0.412615385,10 0,9.67111111 0,9.25925926 C0,8.85 0.413076923,8.51851852 0.921692308,8.51851852 L1.38461538,8.51851852 Z M8,12 C8,13.1046667 7.10466667,14 6,14 C4.89533333,14 4,13.1046667 4,12 L8,12 Z" id="Shape"></path>
        </g>
    </g>
</svg>