<?xml version="1.0" encoding="UTF-8"?>
<svg width="14px" height="14px" viewBox="0 0 14 14" version="1.1" xmlns="http://www.w3.org/2000/svg" xmlns:xlink="http://www.w3.org/1999/xlink">
    <!-- Generator: Sketch 49.2 (51160) - http://www.bohemiancoding.com/sketch -->
    <title>报价</title>
    <desc>Created with Sketch.</desc>
    <defs></defs>
    <g id="报价" stroke="none" stroke-width="1" fill="none" fill-rule="evenodd" opacity="0.5">
        <g transform="translate(1.000000, 0.000000)" fill="#ffffff" fill-rule="nonzero" id="Shape">
            <path d="M11.379643,13 L0.620300545,13 C0.278112029,13 0,12.7219692 0,12.3793179 L0,1.6206821 C0,1.27798692 0.278112029,1 0.620300545,1 L1.65545293,1 L1.65545293,1.6206821 C1.65545293,2.30602862 2.2109002,2.86204629 2.89683078,2.86204629 C3.58197045,2.86204629 4.13747423,2.30602862 4.13747423,1.6206821 L4.13747423,1 L4.75856566,1 L4.75856566,1.6206821 C4.75856566,2.30602862 5.31402707,2.86204629 5.99994351,2.86204629 C6.68513969,2.86204629 7.24137785,2.30602862 7.24137785,1.6206821 L7.24137785,1 L7.86173488,1 L7.86173488,1.6206821 C7.86173488,2.30602862 8.41791655,2.86204629 9.10305624,2.86204629 C9.7889868,2.86204629 10.3444906,2.30602862 10.3444906,1.6206821 L10.3444906,1 L11.379643,1 C11.7218739,1 12,1.27798692 12,1.6206821 L12,12.3793179 C12,12.7219692 11.721888,13 11.379643,13 Z M9.72420415,4 L2.27575346,4 C1.93278818,4 1.65545292,4.22394964 1.65545292,4.50002354 C1.65545292,4.77605038 1.93278818,5 2.27575346,5 L9.72419002,5 C10.0671553,5 10.3444906,4.7760386 10.3444906,4.50002354 C10.3444906,4.22394964 10.0671694,4 9.72420415,4 Z M9.72878541,7 L2.28033472,7 C1.93736944,7 1.66003418,7.22395227 1.66003418,7.49997058 C1.66003418,7.77604774 1.93736944,8 2.28033472,8 L9.72877128,8 C10.0717366,8 10.3490718,7.77604773 10.3490718,7.49997058 C10.3490718,7.22396404 10.0717507,7 9.72878541,7 Z M9.8272745,10 L2.17183572,10 C1.88667627,10 1.65546705,10.2234337 1.65546705,10.4999859 C1.65546705,10.7757895 1.88667627,11 2.17183572,11 L9.82728862,11 C10.113239,11 10.3445047,10.7757895 10.3445047,10.4999859 C10.3444906,10.2234337 10.1132249,10 9.8272745,10 Z M9.10305623,2.24996525 C8.7609242,2.24996525 8.48276981,1.99805366 8.48276981,1.6875269 L8.48276981,0.562517794 C8.48276981,0.251977779 8.76092421,0 9.10305623,0 C9.44602152,0 9.72419003,0.251977779 9.72419003,0.562517794 L9.72419003,1.6875269 C9.72420415,1.9980669 9.44602152,2.24996525 9.10305623,2.24996525 Z M5.9999435,2.24996525 C5.65697821,2.24996525 5.37965709,1.99805366 5.37965709,1.6875269 L5.37965709,0.562517794 C5.37965709,0.251977779 5.65697822,0 5.9999435,0 C6.3429229,0 6.6202864,0.251977779 6.6202864,0.562517794 L6.6202864,1.6875269 C6.62028641,1.9980669 6.3429229,2.24996525 5.9999435,2.24996525 Z M2.8968449,2.24996525 C2.55387961,2.24996525 2.27575346,1.99805366 2.27575346,1.6875269 L2.27575346,0.562517794 C2.27575346,0.251977779 2.55386549,0 2.8968449,0 C3.2390193,0 3.5171878,0.251977779 3.5171878,0.562517794 L3.5171878,1.6875269 C3.5171878,1.9980669 3.2390193,2.24996525 2.8968449,2.24996525 Z"></path>
        </g>
    </g>
</svg>