<?xml version="1.0" encoding="UTF-8"?>
<svg width="14px" height="14px" viewBox="0 0 14 14" version="1.1" xmlns="http://www.w3.org/2000/svg" xmlns:xlink="http://www.w3.org/1999/xlink">
    <!-- Generator: Sketch 49.2 (51160) - http://www.bohemiancoding.com/sketch -->
    <title>search</title>
    <desc>Created with Sketch.</desc>
    <defs></defs>
    <g id="search" stroke="none" stroke-width="1" fill="none" fill-rule="evenodd" opacity="0.5">
        <g transform="translate(1.000000, 1.000000)" fill="#FFFFFF" id="Shape" stroke="#FFFFFF">
            <path d="M11.4788793,0.881896552 L8.82931034,3.53017241 C9.5262931,4.3862069 9.94396552,5.47758621 9.94396552,6.66724138 C9.94396552,9.4137931 7.71853448,11.6392241 4.97198276,11.6392241 C2.22543103,11.6392241 0,9.4137931 0,6.66724138 C0,3.92068966 2.22543103,1.69525862 4.97198276,1.69525862 C6.15646552,1.69525862 7.24396552,2.10905172 8.09741379,2.80086207 L10.7469828,0.151293103 C10.8478448,0.0504310345 10.9797414,0 11.112931,0 C11.2448276,0 11.3780172,0.0504310345 11.4788793,0.151293103 C11.6806034,0.353017241 11.6806034,0.680172414 11.4788793,0.881896552 L11.4788793,0.881896552 Z M6.54439655,2.94310345 C6.04655172,2.73232759 5.51767241,2.6262931 4.97198276,2.6262931 C4.4262931,2.6262931 3.89741379,2.73362069 3.39956897,2.94310345 C2.91853448,3.14612069 2.48663793,3.43836207 2.11422414,3.80948276 C1.74310345,4.18060345 1.45086207,4.6137931 1.24784483,5.09482759 C1.03706897,5.59267241 0.931034483,6.12155172 0.931034483,6.66724138 C0.931034483,7.21293103 1.03836207,7.74181034 1.24784483,8.23965517 C1.45086207,8.72068966 1.74310345,9.15258621 2.11422414,9.525 C2.48534483,9.89612069 2.91853448,10.1883621 3.39956897,10.3913793 C3.89741379,10.6021552 4.4262931,10.7081897 4.97198276,10.7081897 C5.51767241,10.7081897 6.04655172,10.6008621 6.54439655,10.3913793 C7.02543103,10.1883621 7.45732759,9.89612069 7.82974138,9.525 C8.20086207,9.15387931 8.49310345,8.72198276 8.69612069,8.23965517 C8.90689655,7.74181034 9.01293103,7.21293103 9.01293103,6.66724138 C9.01293103,6.12155172 8.90560345,5.59267241 8.69612069,5.09482759 C8.49310345,4.6137931 8.20086207,4.18189655 7.82974138,3.80948276 C7.45732759,3.43836207 7.02543103,3.14741379 6.54439655,2.94310345 L6.54439655,2.94310345 Z" transform="translate(5.815086, 5.819612) scale(1, -1) translate(-5.815086, -5.819612) "></path>
        </g>
    </g>
</svg>