<?xml version="1.0" encoding="UTF-8"?>
<svg width="14px" height="13px" viewBox="0 0 14 13" version="1.1" xmlns="http://www.w3.org/2000/svg" xmlns:xlink="http://www.w3.org/1999/xlink">
    <!-- Generator: Sketch 49.2 (51160) - http://www.bohemiancoding.com/sketch -->
    <title>基础数据管理</title>
    <desc>Created with Sketch.</desc>
    <defs></defs>
    <g id="财务管理" stroke="none" stroke-width="1" fill="none" fill-rule="evenodd" opacity="0.7">
        <g id="应付对账-特殊业务-待开立列表" transform="translate(-27.000000, -582.000000)" fill="#FFFFFF" fill-rule="nonzero">
            <g id="基础数据管理" transform="translate(27.000000, 582.000000)">
                <path d="M2,2 L4,2 L4,3 L2,3 L2,2 Z M2,6 L4,6 L4,7 L2,7 L2,6 Z M2,10 L4,10 L4,11 L2,11 L2,10 Z" id="Shape"></path>
                <path d="M13,1 L13,4.00000001 L1,4.00000001 L1,1 L13,1 Z M14,0 L0,0 L0,4.99999999 L14,4.99999999 L14,0 Z M13,5 L13,8 L1,8 L1,5 L13,5 Z M14,3.99999999 L0,3.99999999 L0,9.00000001 L14,9.00000001 L14,3.99999999 Z M13,9.00000001 L13,12 L1,12 L1,9.00000001 L13,9.00000001 Z M14,8.00000001 L0,8.00000001 L0,13 L14,13 L14,8.00000001 Z" id="Shape"></path>
            </g>
        </g>
    </g>
</svg>