<?xml version="1.0" encoding="UTF-8"?>
<svg width="15px" height="13px" viewBox="0 0 15 13" version="1.1" xmlns="http://www.w3.org/2000/svg" xmlns:xlink="http://www.w3.org/1999/xlink">
    <!-- Generator: Sketch 49.2 (51160) - http://www.bohemiancoding.com/sketch -->
    <title>运作管理</title>
    <desc>Created with Sketch.</desc>
    <defs></defs>
    <g id="财务管理" stroke="none" stroke-width="1" fill="none" fill-rule="evenodd" opacity="0.7">
        <g id="应付对账-特殊业务-待开立列表" transform="translate(-25.000000, -131.000000)" fill="#FFFFFF" fill-rule="nonzero">
            <g id="侧导航栏" transform="translate(0.000000, 58.000000)">
                <g id="运作管理" transform="translate(25.000000, 73.000000)">
                    <path d="M14.9673629,8.94875901 L12.9431236,6.10648519 C12.8916599,6.03442754 12.805887,5.99439552 12.7115369,5.99439552 L10.9945675,5.99439552 L10.9945675,3.49639712 C10.9945675,3.22417934 10.8691558,3 10.5775281,3 L7.5,3 C7.19979501,3 6.96820831,3.22417934 6.96820831,3.49639712 C6.96820831,3.7766213 7.2083723,3.99279424 7.5,3.99279424 L9.99913025,3.99279424 L9.99913025,9.99759808 L5.06059835,9.99759808 C4.68319779,9.39711769 4.00559225,8.99679744 3.20790471,8.99679744 C2.41021718,8.99679744 1.72403435,9.39711769 1.35521108,9.99759808 L1.00703774,9.99614136 L1.00703774,8.49639712 C1.00703774,8.21617294 0.796432458,8.00146412 0.504804757,8.00146412 C0.20459977,8.00146412 8.91214186e-16,8.22417934 8.8817842e-16,8.49639712 L0,10.5020016 C0,10.7742194 0.240163989,10.9983987 0.531791691,10.9983987 L1.06358338,10.9983987 C1.06358338,12.1032826 2.02423934,13 3.20790471,13 C4.39157009,13 5.1453918,12.0502222 5.06059835,10.9983987 L9.64086871,10.9983987 C9.64086871,12.1032826 10.6015247,13 11.78519,13 C12.9688554,13 13.9295114,12.1032826 13.9295114,10.9983987 L14.4613031,10.9983987 C14.7529308,10.9983987 14.9930948,10.7742194 14.9930948,10.5020016 L14.9930948,9.08486789 C15.0102493,9.03682946 14.9930948,8.98078463 14.9673629,8.94875901 Z M3.216482,11.9991994 C2.62464931,11.9991994 2.14432133,11.5508407 2.14432133,10.9983987 C2.14432133,10.4459568 2.62464931,9.99759808 3.216482,9.99759808 C3.80831469,9.99759808 4.28864267,10.4459568 4.28864267,10.9983987 C4.28864267,11.433501 3.99068992,11.8040394 3.57497522,11.9418159 C3.4628641,11.9789719 3.34218829,11.9991994 3.216482,11.9991994 Z M11.7937673,11.9991994 C11.2019346,11.9991994 10.7827533,11.5508407 10.7827533,10.9983987 C10.7827533,10.4459568 11.2019346,9.99759808 11.7937673,9.99759808 C12.3856,9.99759808 12.865928,10.4459568 12.865928,10.9983987 C12.865928,11.5508407 12.3856,11.9991994 11.7937673,11.9991994 Z M14.0040338,9.99361005 L13.646461,9.99759808 C13.2690604,9.39711769 12.5914549,8.99679744 11.7937673,8.99679744 C11.4077895,8.99679744 11.3119271,8.96248519 10.9945675,9.1386261 L10.9945675,6.99519616 L12.3169817,6.99519616 C12.4113319,6.99519616 12.4885274,7.03522818 12.5314139,7.10728583 L13.9770943,8.90557582 C14.0028262,8.94560784 14.0040338,9.03682946 14.0040338,9.08486789 L14.0040338,9.99361005 Z" id="Shape"></path>
                    <path d="M5.43721634,0 L0.562783661,0 C0.245083207,0 0,0.251604621 0,0.557124519 L0,6.44287548 C0,6.74839538 0.254160363,7 0.562783661,7 L5.43721634,7 C5.75491679,7 6,6.74839538 6,6.44287548 L6,0.557124519 C6,0.242618742 5.74583964,0 5.43721634,0 Z M5,6 L1,6 L1,1 L5,1 L5,6 Z" id="Shape"></path>
                    <path d="M3.43806647,3 L1,3 L1,2 L3.43806647,2 C3.75528701,2 4,2.224 4,2.496 C4,2.776 3.74622356,3 3.43806647,3 Z" id="Shape"></path>
                    <path d="M2.47234043,5 L1,5 L1,4 L2.47234043,4 C2.77021277,4 3,4.224 3,4.496 C3,4.776 2.76170213,5 2.47234043,5 Z" id="Shape"></path>
                </g>
            </g>
        </g>
    </g>
</svg>