<?xml version="1.0" encoding="UTF-8"?>
<svg width="15px" height="13px" viewBox="0 0 15 13" version="1.1" xmlns="http://www.w3.org/2000/svg" xmlns:xlink="http://www.w3.org/1999/xlink">
    <!-- Generator: Sketch 49.2 (51160) - http://www.bohemiancoding.com/sketch -->
    <title>客户管理</title>
    <desc>Created with Sketch.</desc>
    <defs></defs>
    <g id="财务管理" stroke="none" stroke-width="1" fill="none" fill-rule="evenodd" fill-opacity="0.7">
        <g id="应付对账-特殊业务-待开立列表" transform="translate(-25.000000, -283.000000)" fill="#FFFFFF" fill-rule="nonzero">
            <g id="客户管理" transform="translate(25.000000, 283.000000)">
                <path d="M15,11.1368998 C15,9.15617269 13.7770048,7.4629313 12.0480755,6.77211063 C12.8855804,6.21076372 13.4372832,5.25442756 13.4372832,4.16816984 C13.4372832,2.68515874 12.4090709,1.44395592 11.0293587,1.12094329 C11.0162359,1.11787642 11.0044436,1.11962697 10.9926653,1.12401017 C10.9768116,1.12269385 10.9618541,1.11917916 10.9460144,1.11917916 C10.651137,1.11917916 10.411972,1.35925043 10.411972,1.65506829 C10.411972,1.92236148 10.6076512,2.14180599 10.862656,2.18217748 C10.9079485,2.2010537 10.9672881,2.21509891 10.9695569,2.21596739 C11.7690239,2.48807803 12.3442833,3.24605786 12.3442833,4.14007943 C12.3442833,5.13680065 11.6286088,5.9654272 10.6846512,6.13878713 C10.6832927,6.13878713 10.6823964,6.14141975 10.6810239,6.141854 C10.3671276,6.16204654 10.1175568,6.42099403 10.1175568,6.74095336 C10.1175568,7.0657437 10.3743823,7.32907437 10.695071,7.34180328 C10.6973398,7.34268534 10.6991465,7.34618647 10.7014153,7.34663429 C12.5993022,7.54062099 13.945024,9.16278141 13.945024,11.1369134 C13.945024,11.4292166 14.1810239,11.666221 14.4722739,11.666221 C14.7567314,11.666221 14.986387,11.4401949 14.9977032,11.157988 C14.9981513,11.1549211 14.999972,11.1527227 14.999972,11.1500901 C14.999972,11.1492216 14.9995098,11.1483395 14.9995098,11.1470232 C14.9995098,11.1435085 14.999972,11.1404281 14.999972,11.1373612 L14.999972,11.1368998 L15,11.1368998 Z M7.67898114,6.86033082 C8.67865102,6.18795211 9.33770292,5.0446315 9.33770292,3.74639292 C9.33770292,1.67744561 7.66584437,0 5.60398584,0 C3.54166516,0 1.86980659,1.67744562 1.86980659,3.74639292 C1.86980659,5.04506574 2.52885849,6.18795211 3.52852836,6.86033082 C1.46169806,7.68764105 0,9.71313642 0,12.082719 C0,12.2161417 0.00770279822,12.347366 0.0176744277,12.4781561 L0.0185707595,12.4781561 C0.0185707595,12.7665103 0.251839669,13 0.539014206,13 C0.82665091,13 1.05947165,12.7665103 1.05947165,12.4781561 C1.05947165,12.4619261 1.0563065,12.446551 1.05448584,12.4303209 C1.04452821,12.3153267 1.03591508,12.2003459 1.03591508,12.082719 C1.03591508,9.55162332 3.0810095,7.49980167 5.6035377,7.49980167 C8.12650005,7.49980167 10.1716085,9.55162332 10.1716085,12.082719 C10.1716085,12.2047291 10.1629953,12.3249887 10.1521274,12.4439319 C10.1521274,12.4500792 10.1503067,12.4557787 10.1503067,12.4619261 C10.1503067,12.4641109 10.1507549,12.465875 10.1507549,12.4676256 C10.1507549,12.4711403 10.1507549,12.4746414 10.1503067,12.4777218 L10.1521274,12.4777218 C10.1607265,12.7586124 10.3890236,12.9842042 10.6707502,12.9842042 C10.9524907,12.9842042 11.1807878,12.7586124 11.1893869,12.4777218 L11.1907454,12.4777218 C11.2002549,12.347366 11.2070474,12.2157075 11.2070474,12.082719 C11.2075095,9.71313642 9.74582549,7.68764105 7.67898114,6.86033082 Z M5.60398585,6.4372376 C4.12237254,6.4372376 2.92157546,5.23248446 2.92157546,3.74639293 C2.92157546,2.26030139 4.12237254,1.05553469 5.60398585,1.05553469 C7.08515099,1.05553469 8.28594809,2.26028783 8.28594809,3.74639293 C8.28594809,5.2324709 7.08515099,6.4372376 5.60398585,6.4372376 Z" id="Shape"></path>
            </g>
        </g>
    </g>
</svg>