<?xml version="1.0" encoding="UTF-8"?>
<svg width="14px" height="14px" viewBox="0 0 14 14" version="1.1" xmlns="http://www.w3.org/2000/svg" xmlns:xlink="http://www.w3.org/1999/xlink">
    <!-- Generator: Sketch 49.2 (51160) - http://www.bohemiancoding.com/sketch -->
    <title>财务管理</title>
    <desc>Created with Sketch.</desc>
    <defs></defs>
    <g id="财务管理" stroke="none" stroke-width="1" fill="none" fill-rule="evenodd" opacity="0.7">
        <g id="应付对账-特殊业务-待开立列表" transform="translate(-25.000000, -482.000000)" fill="#FFFFFF" fill-rule="nonzero">
            <g id="财务管理" transform="translate(25.000000, 482.000000)">
                <path d="M7,0 C3.1375,0 0,3.1375 0,7 C0,10.8625 3.1375,14 7,14 C10.8625,14 14,10.8625 14,7 C14,3.1375 10.8625,0 7,0 Z M7,13 C3.6875,13 1,10.3125 1,7 C1,3.6875 3.6875,1 7,1 C10.3125,1 13,3.6875 13,7 C13,10.3125 10.3125,13 7,13 Z M7.5625,6 L10,6 L10,7 L7.5125,7 L7.5125,8 L10,8 L10,9 L7.5125,9 L7.5125,12.025 L6.5125,12.025 L6.5125,9 L4,9 L4,8 L6.5125,8 L6.5125,7 L4,7 L4,6 L6.4625,6 L4.1875,3.725 L4.9,3.0125 L7.025,5.1375 L9.15,3.0125 L9.8625,3.725 L7.5625,6 Z" id="Shape"></path>
            </g>
        </g>
    </g>
</svg>