<?xml version="1.0" encoding="UTF-8"?>
<svg width="14px" height="14px" viewBox="0 0 14 14" version="1.1" xmlns="http://www.w3.org/2000/svg" xmlns:xlink="http://www.w3.org/1999/xlink">
    <!-- Generator: Sketch 49.2 (51160) - http://www.bohemiancoding.com/sketch -->
    <title>首页</title>
    <desc>Created with Sketch.</desc>
    <defs></defs>
    <g id="财务管理" stroke="none" stroke-width="1" fill="none" fill-rule="evenodd" opacity="0.7">
        <g id="应付对账-特殊业务-待开立列表" transform="translate(-25.000000, -81.000000)" fill="#FFFFFF" fill-rule="nonzero">
            <g id="首页" transform="translate(25.000000, 81.000000)">
                <path d="M11.5,14 C11.2238576,14 11,13.776224 11,13.5001824 L11,7.50237067 C11,7.22632901 11.2238576,7.00255303 11.5,7.00255303 C11.7761424,7.00255303 12,7.22632901 12,7.50237067 L12,13.5001824 C12,13.776224 11.7761424,14 11.5,14 Z M8.5,14 C8.22385763,14 8,13.776224 8,13.5001824 L8,10.5012765 C8,10.2252349 8.22385763,10.0014589 8.5,10.0014589 C8.77614237,10.0014589 9,10.2252349 9,10.5012765 L9,13.5001824 C9,13.776224 8.77614237,14 8.5,14 Z M5.5,14 C5.22385763,14 5,13.776224 5,13.5001824 L5,10.5012765 C5,10.2252349 5.22385763,10.0014589 5.5,10.0014589 C5.77614237,10.0014589 6,10.2252349 6,10.5012765 L6,13.5001824 C6,13.776224 5.77614237,14 5.5,14 Z M8.39950941,11.0010942 L5.60134771,11.0010942 C5.34378403,11.0010942 5.13498742,10.7773182 5.13498742,10.5012765 C5.13498742,10.2252349 5.34378403,10.0014589 5.60134771,10.0014589 L8.39950941,10.0014589 C8.65707309,10.0014589 8.8658697,10.2252349 8.8658697,10.5012765 C8.8658697,10.7773182 8.65707309,11.0010942 8.39950941,11.0010942 Z M11.1976711,14 L8.39950941,14 C8.14194574,14 7.93314913,13.776224 7.93314913,13.5001824 C7.93314913,13.2241407 8.14194574,13.0003647 8.39950941,13.0003647 L11.1976711,13.0003647 C11.4552348,13.0003647 11.6640314,13.2241407 11.6640314,13.5001824 C11.6640314,13.776224 11.4552348,14 11.1976711,14 Z M2.5,14 C2.22385763,14 2,13.776224 2,13.5001824 L2,7.50237067 C2,7.22632901 2.22385763,7.00255303 2.5,7.00255303 C2.77614237,7.00255303 3,7.22632901 3,7.50237067 L3,13.5001824 C3,13.776224 2.77614237,14 2.5,14 Z M5.60134771,14 L2.803186,14 C2.54562233,14 2.33682572,13.776224 2.33682572,13.5001824 C2.33682572,13.2241407 2.54562233,13.0003647 2.803186,13.0003647 L5.60134771,13.0003647 C5.85891138,13.0003647 6.06770799,13.2241407 6.06770799,13.5001824 C6.06770799,13.776224 5.85891138,14 5.60134771,14 Z M2.57645287,8.00218831 L0.433595723,8.00218831 C0.196902259,8.00218831 0.00502429439,7.77841233 0.00502429439,7.50237067 C0.00502429439,7.22632901 0.196902259,7.00255303 0.433595723,7.00255303 L2.57645287,7.00255303 C2.81314633,7.00255303 3.00502429,7.22632901 3.00502429,7.50237067 C3.00502429,7.77841233 2.81314633,8.00218831 2.57645287,8.00218831 Z M13.5714286,8.00218831 L11.4285714,8.00218831 C11.191878,8.00218831 11,7.77841233 11,7.50237067 C11,7.22632901 11.191878,7.00255303 11.4285714,7.00255303 L13.5714286,7.00255303 C13.808122,7.00255303 14,7.22632901 14,7.50237067 C14,7.77841233 13.808122,8.00218831 13.5714286,8.00218831 Z M7.36139142,0.847798609 L0.794105896,7.86123974 C0.61179127,8.0539452 0.31885252,8.0539452 0.136537895,7.86123974 C0.0491599275,7.76849672 0,7.64216666 0,7.51036776 C0,7.37856885 0.0491599275,7.25223879 0.136537895,7.15949577 L6.70475614,0.146054642 C6.82171951,0.0203430207 6.9923751,-0.0289434857 7.15243862,0.0167608731 C7.31250213,0.0624652319 7.43765611,0.196216876 7.48075626,0.367632857 C7.52385641,0.539048837 7.47835479,0.722086988 7.36139142,0.847798609 Z M13.8633865,7.86123974 C13.6815979,8.0543693 13.3885399,8.0543693 13.2067512,7.86123974 L6.6394657,0.847798609 C6.55208773,0.755055593 6.50292781,0.628725527 6.50292781,0.496926626 C6.50292781,0.365127724 6.55208773,0.238797658 6.6394657,0.146054642 C6.82104442,-0.0476206381 7.11452226,-0.0476206381 7.29610098,0.146054642 L13.8643192,7.15949577 C13.9513426,7.25250406 14.0001746,7.37885941 13.9999995,7.51057561 C13.9998245,7.64229181 13.9506568,7.76849754 13.8633865,7.86123974 Z" id="Shape"></path>
            </g>
        </g>
    </g>
</svg>