<?xml version="1.0" encoding="UTF-8"?>
<svg width="15px" height="15px" viewBox="0 0 15 15" version="1.1" xmlns="http://www.w3.org/2000/svg" xmlns:xlink="http://www.w3.org/1999/xlink">
    <!-- Generator: Sketch 49.2 (51160) - http://www.bohemiancoding.com/sketch -->
    <title>项目管理</title>
    <desc>Created with Sketch.</desc>
    <defs></defs>
    <g id="财务管理" stroke="none" stroke-width="1" fill="none" fill-rule="evenodd" opacity="0.7">
        <g id="应付对账-特殊业务-待开立列表" transform="translate(-25.000000, -331.000000)" fill="#FFFFFF" fill-rule="nonzero">
            <g id="项目管理" transform="translate(25.000000, 331.000000)">
                <path d="M13.25,12.25 L12.62875,11.633125 C12.7929947,11.4674853 13.0167349,11.3745228 13.25,11.375 C13.7332492,11.375 14.125,10.9832492 14.125,10.5 L14.125,1.75 C14.125,1.26675084 13.7332492,0.875 13.25,0.875 L4.5,0.875 C4.01675084,0.875 3.625,1.26675084 3.625,1.75 L3.625,1.824375 C3.625,2.065 3.52875,2.282875 3.37125,2.44125 L2.75,1.824375 L2.75,1.75 C2.75,0.783501688 3.53350169,1.7754286e-16 4.5,0 L13.25,0 C14.2164983,5.91809532e-17 15,0.783501688 15,1.75 L15,10.5 C15,11.4664983 14.2164983,12.25 13.25,12.25 Z M1,4.83333333 L1,13.1666667 C1,13.626904 1.37309604,14 1.83333333,14 L10.1666667,14 C10.626904,14 11,13.626904 11,13.1666667 L11,4.83333333 C11,4.37309604 10.626904,4 10.1666667,4 L1.83333333,4 C1.37309604,4 1,4.37309604 1,4.83333333 Z M10.2857143,3 C11.2324881,3 12,3.76751186 12,4.71428571 L12,13.2857143 C12,14.2324881 11.2324881,15 10.2857143,15 L1.71428571,15 C0.767511857,15 1.15946357e-16,14.2324881 0,13.2857143 L0,4.71428571 C-1.15946357e-16,3.76751186 0.767511857,3 1.71428571,3 L10.2857143,3 Z" id="Shape"></path>
                <path d="M2.25,5 L7.25,5 C7.48011865,5 7.66666667,5.22385763 7.66666667,5.5 C7.66666667,5.77614237 7.48011865,6 7.25,6 L2.25,6 C2.01988135,6 1.83333333,5.77614237 1.83333333,5.5 C1.83333333,5.22385763 2.01988135,5 2.25,5 Z M10.3333333,6 C9.78104858,6 9.33333333,5.77614237 9.33333333,5.5 C9.33333333,5.22385763 9.78104858,5 10.3333333,5 C10.8856181,5 11.3333333,5.22385763 11.3333333,5.5 C11.3333333,5.77614237 10.8856181,6 10.3333333,6 Z M1,7 L11,7 L11,8 L1,8 L1,7 Z" id="Shape"></path>
            </g>
        </g>
    </g>
</svg>