<?xml version="1.0" encoding="UTF-8"?>
<svg width="14px" height="16px" viewBox="0 0 14 16" version="1.1" xmlns="http://www.w3.org/2000/svg" xmlns:xlink="http://www.w3.org/1999/xlink">
    <!-- Generator: Sketch 49.2 (51160) - http://www.bohemiancoding.com/sketch -->
    <title>资源管理</title>
    <desc>Created with Sketch.</desc>
    <defs></defs>
    <g id="财务管理" stroke="none" stroke-width="1" fill="none" fill-rule="evenodd" opacity="0.7">
        <g id="应付对账-特殊业务-待开立列表" transform="translate(-25.000000, -381.000000)" fill="#FFFFFF" fill-rule="nonzero">
            <g id="资源管理" transform="translate(25.000000, 381.000000)">
                <path d="M0.162377288,4.56399293 L0.15920001,4.56881129 L6.77610552,8.37898523 C6.84240762,8.4172716 6.91777728,8.4375 6.99403195,8.4375 C7.07266594,8.4375 7.14990716,8.41630214 7.21664449,8.37664117 L13.7828296,4.59579696 C13.9906439,4.47577222 14.0618062,4.20943162 13.9414324,4.00209776 C13.9022895,3.93471317 13.8457223,3.87903443 13.7786368,3.84154388 L7.23752167,0.0585581791 C7.17123409,0.0202428694 7.09584991,0 7.01958074,0 C6.93373621,0 6.85061921,0.0248586488 6.77906518,0.0719135533 L0.218146489,3.84977704 C0.0102451731,3.96886125 -0.0617295952,4.23449285 0.0577012237,4.441928 C0.0847878781,4.48893949 0.120376289,4.53035128 0.162377288,4.56399293 Z M7.01801386,0.936004815 L12.6946193,4.2190828 L6.99439465,7.50136496 L1.30532674,4.22539151 L7.01801386,0.936004815 Z" id="Shape"></path>
                <path d="M13.7786369,7.31705204 L12.547508,6.5625 L11.6772103,7.09353388 L12.6946347,7.71716749 L6.9943997,11.1954302 L1.3053359,7.72385294 L2.32496562,7.10167603 L1.45514661,6.57090282 L0.21814192,7.32577687 C0.0102407539,7.45201855 -0.0617339625,7.73351312 0.0577112784,7.95327455 C0.0852621727,8.00398282 0.121633996,8.04851165 0.164577991,8.08449965 L0.161821451,8.08942175 L6.77612524,12.1255215 C6.84242729,12.1660789 6.91778239,12.1875 6.994037,12.1875 C7.07267094,12.1874847 7.14989759,12.1650516 7.21664939,12.1230375 L13.7828298,8.11643958 C13.9906439,7.98917055 14.0618062,7.70692463 13.9414324,7.48727054 C13.902275,7.41580054 13.8457079,7.35678145 13.7786369,7.31705204 Z" id="Shape"></path>
                <path d="M13.7786426,11.126884 L12.5525755,10.375 L11.6823057,10.9063265 L12.6946536,11.5271739 L6.99441148,15.007399 L1.30532614,11.5339244 L2.31987928,10.9144577 L1.45010272,10.3834228 L0.21814533,11.1356443 C0.0102293987,11.2619556 -0.0617308985,11.5436052 0.0577144899,11.7634724 C0.0849462395,11.8136256 0.120839339,11.8577647 0.163203063,11.8935884 L0.160185373,11.8986206 L6.77610774,15.937926 C6.84242437,15.9785364 6.91779408,16.0000153 6.99406329,16 C7.07266831,16 7.14989505,15.9775545 7.21664693,15.9355326 L13.78285,11.9266813 C13.9906498,11.7993268 14.0617977,11.5169254 13.9414383,11.2971503 C13.9023244,11.2257329 13.8457572,11.1666813 13.7786426,11.126884 Z" id="Shape"></path>
            </g>
        </g>
    </g>
</svg>