<?xml version="1.0" encoding="UTF-8"?>
<svg width="14px" height="14px" viewBox="0 0 14 14" version="1.1" xmlns="http://www.w3.org/2000/svg" xmlns:xlink="http://www.w3.org/1999/xlink">
    <!-- Generator: Sketch 49.2 (51160) - http://www.bohemiancoding.com/sketch -->
    <title>系统管理</title>
    <desc>Created with Sketch.</desc>
    <defs></defs>
    <g id="财务管理" stroke="none" stroke-width="1" fill="none" fill-rule="evenodd" opacity="0.7">
        <g id="应付对账-特殊业务-待开立列表" transform="translate(-25.000000, -433.000000)" fill="#FFFFFF" fill-rule="nonzero">
            <g id="系统管理" transform="translate(25.000000, 433.000000)">
                <path d="M13.5707031,5.52480469 L12.2759766,5.52480469 C12.1570313,5.096875 11.9888672,4.69082031 11.7755859,4.31210937 L12.6902344,3.39746094 C12.8570313,3.23066406 12.8570313,2.95722656 12.6902344,2.7890625 L11.2109375,1.31113281 C11.1275391,1.22773437 11.0167969,1.18535156 10.9074219,1.18535156 C10.7980469,1.18535156 10.6873047,1.22773437 10.6039063,1.31113281 L9.68925781,2.22578125 C9.31054688,2.0125 8.90449219,1.84433594 8.4765625,1.72539062 L8.4765625,0.429296875 C8.4765625,0.192773437 8.28242188,0 8.04726563,0 L5.95546875,0 C5.71894531,0 5.52617188,0.194140625 5.52617188,0.429296875 L5.52617188,1.72402344 C5.09824219,1.84296875 4.6921875,2.01113281 4.31347656,2.22441406 L3.39882813,1.30976562 C3.31542969,1.22636719 3.2046875,1.18398437 3.0953125,1.18398437 C2.9859375,1.18398437 2.87519531,1.22636719 2.79179688,1.30976562 L1.31113281,2.7890625 C1.14433594,2.95585937 1.14433594,3.22929687 1.31113281,3.39746094 L2.22578125,4.31210937 C2.0125,4.69082031 1.84433594,5.096875 1.72539063,5.52480469 L0.429296875,5.52480469 C0.194140625,5.52480469 0,5.71894531 0,5.95546875 L0,8.04589844 C0,8.28242187 0.194140625,8.47519531 0.429296875,8.47519531 L1.72402344,8.47519531 C1.84296875,8.903125 2.01113281,9.30917969 2.22441406,9.68789062 L1.30976563,10.6025391 C1.14296875,10.7693359 1.14296875,11.0427734 1.30976563,11.2109375 L2.7890625,12.6888672 C2.87246094,12.7722656 2.98320313,12.8146484 3.09257813,12.8146484 C3.20195313,12.8146484 3.31269531,12.7722656 3.39609375,12.6888672 L4.31074219,11.7742187 C4.68945313,11.9875 5.09550781,12.1556641 5.5234375,12.2746094 L5.5234375,13.5693359 C5.5234375,13.8058594 5.71757813,13.9986328 5.95273438,13.9986328 L8.04316406,13.9986328 C8.2796875,13.9986328 8.47246094,13.8044922 8.47246094,13.5693359 L8.47246094,12.2746094 C8.90039063,12.1556641 9.30644531,11.9875 9.68515625,11.7742187 L10.5998047,12.6888672 C10.6832031,12.7722656 10.7939453,12.8146484 10.9033203,12.8146484 C11.0126953,12.8146484 11.1234375,12.7722656 11.2068359,12.6888672 L12.6888672,11.2109375 C12.8556641,11.0441406 12.8556641,10.7707031 12.6888672,10.6025391 L11.7742188,9.68789062 C11.9875,9.30917969 12.1556641,8.903125 12.2746094,8.47519531 L13.5693359,8.47519531 C13.8058594,8.47519531 13.9986328,8.28105469 13.9986328,8.04589844 L13.9986328,5.95546875 C14,5.71894531 13.8072266,5.52480469 13.5707031,5.52480469 Z M13.125,7.60019531 L12.2746094,7.60019531 L11.6101563,7.60019531 L11.4310547,8.24003906 C11.33125,8.59960938 11.1890625,8.94277344 11.0113281,9.25859375 L10.6845703,9.83691406 L11.1548828,10.3072266 L11.7550781,10.9074219 L10.9060547,11.7564453 L10.3058594,11.15625 L9.83554688,10.6859375 L9.25722656,11.0126953 C8.94140625,11.1904297 8.59824219,11.3326172 8.23867188,11.4324219 L7.59882813,11.6115234 L7.59882813,12.2759766 L7.59882813,13.125 L6.3984375,13.125 L6.3984375,12.2746094 L6.3984375,11.6101563 L5.75859375,11.4310547 C5.39902344,11.33125 5.05585938,11.1890625 4.74003906,11.0113281 L4.16171875,10.6845703 L3.69140625,11.1548828 L3.09121094,11.7550781 L2.2421875,10.9060547 L2.84238281,10.3058594 L3.31269531,9.83554688 L2.9859375,9.25722656 C2.80820313,8.94140625 2.66601563,8.59824219 2.56621094,8.23867188 L2.38710938,7.59882813 L1.72265625,7.59882813 L0.875,7.59882813 L0.875,6.3984375 L1.72539063,6.3984375 L2.38984375,6.3984375 L2.56894531,5.75859375 C2.66875,5.39902344 2.8109375,5.05585938 2.98867188,4.74003906 L3.31542969,4.16171875 L2.84511719,3.69140625 L2.24492188,3.09121094 L3.09394531,2.2421875 L3.69414063,2.84238281 L4.16445313,3.31269531 L4.74277344,2.9859375 C5.05859375,2.80820313 5.40175781,2.66601563 5.76132813,2.56621094 L6.40117188,2.38710938 L6.40117188,1.72265625 L6.40117188,0.875 L7.6015625,0.875 L7.6015625,1.72539063 L7.6015625,2.38984375 L8.24140625,2.56894531 C8.60097656,2.66875 8.94414063,2.8109375 9.25996094,2.98867188 L9.83828125,3.31542969 L10.3085938,2.84511719 L10.9087891,2.24492188 L11.7578125,3.09394531 L11.1576172,3.69414063 L10.6873047,4.16445313 L11.0140625,4.74277344 C11.1917969,5.05859375 11.3339844,5.40175781 11.4337891,5.76132813 L11.6128906,6.40117188 L12.2773438,6.40117188 L13.125,6.40117188 L13.125,7.60019531 Z" id="Shape"></path>
                <path d="M7,4.375 C5.55078125,4.375 4.375,5.55078125 4.375,7 C4.375,8.44921875 5.55078125,9.625 7,9.625 C8.44921875,9.625 9.625,8.44921875 9.625,7 C9.625,5.55078125 8.44921875,4.375 7,4.375 Z M7,8.75 C6.53242188,8.75 6.09355469,8.56816406 5.76269531,8.23730469 C5.43183594,7.90644531 5.25,7.46757813 5.25,7 C5.25,6.53242188 5.43183594,6.09355469 5.76269531,5.76269531 C6.09355469,5.43183594 6.53242188,5.25 7,5.25 C7.46757813,5.25 7.90644531,5.43183594 8.23730469,5.76269531 C8.56816406,6.09355469 8.75,6.53242188 8.75,7 C8.75,7.46757813 8.56816406,7.90644531 8.23730469,8.23730469 C7.90644531,8.56816406 7.46757813,8.75 7,8.75 Z" id="Shape"></path>
            </g>
        </g>
    </g>
</svg>