<?xml version="1.0" encoding="UTF-8"?>
<svg width="14px" height="14px" viewBox="0 0 14 14" version="1.1" xmlns="http://www.w3.org/2000/svg" xmlns:xlink="http://www.w3.org/1999/xlink">
    <!-- Generator: Sketch 49.2 (51160) - http://www.bohemiancoding.com/sketch -->
    <title>业务运作管理</title>
    <desc>Created with Sketch.</desc>
    <defs></defs>
    <g id="财务管理" stroke="none" stroke-width="1" fill="none" fill-rule="evenodd" opacity="0.7">
        <g id="应付对账-特殊业务-待开立列表" transform="translate(-25.000000, -132.000000)" fill="#FFFFFF" fill-rule="nonzero">
            <g id="业务运作管理" transform="translate(25.000000, 132.000000)">
                <path d="M13.174,14 L0.826,14 C0.635999998,13.933 0.450000004,13.863 0.301,13.717 C0.144999996,13.564 0.0669999941,13.373 0,13.174 L0,0.826 C0.0669999941,0.635999998 0.136999994,0.450000004 0.283000006,0.301 C0.436000004,0.144999996 0.626999994,0.0669999941 0.826,0 L13.174,0 C13.364,0.0669999941 13.55,0.136999994 13.699,0.283000006 C13.855,0.436000004 13.933,0.627000008 14,0.826 L14,13.174 C13.933,13.373 13.855,13.564 13.7,13.717 C13.55,13.863 13.363,13.933 13.174,14 Z M12.994,1.01 L1.01,1.01 L1.01,12.992 L12.992,12.992 L12.992,1.01 L12.994,1.01 Z" id="Shape"></path>
                <path d="M10.8301887,2.90566038 L10.8301887,3.82686458 L4.93270456,3.82686458 L4.93270456,2.90566038 L10.8301887,2.90566038 M10.8301887,4.93270456 L10.8301887,5.85390876 L4.93270456,5.85390876 L4.93270456,4.93270456 L10.8301887,4.93270456 M10.8301887,7.88194029 L10.8301887,8.8031445 L4.93270456,8.8031445 L4.93270456,7.88194029 L10.8301887,7.88194029 M4.93270456,10.8301887 L4.93270456,9.90898448 L10.8301887,9.90898448 L10.8301887,10.8301887 L4.93270456,10.8301887 M3.82686458,3.82686458 L2.90566038,3.82686458 L2.90566038,2.90566038 L3.82686458,2.90566038 L3.82686458,3.82686458 M3.82686458,9.90898448 L3.82686458,10.8301887 L2.90566038,10.8301887 L2.90566038,9.90898448 L3.82686458,9.90898448 M3.82686458,4.93270456 L3.82686458,5.85390876 L2.90566038,5.85390876 L2.90566038,4.93270456 L3.82686458,4.93270456 M3.82686458,8.8031445 L2.90566038,8.8031445 L2.90566038,7.88194029 L3.82686458,7.88194029 L3.82686458,8.8031445" id="Shape"></path>
            </g>
        </g>
    </g>
</svg>